<svg xmlns="http://www.w3.org/2000/svg" style="display: none;">
  <symbol id="window-control_close" viewBox="0 0 30 30">
      <line x1="19.5" y1="10.5" x2="10.5" y2="19.5" fill="none" stroke="currentcolor" stroke-linecap="round"/>
<line x1="10.5" y1="10.5" x2="19.5" y2="19.5" fill="none" stroke="currentcolor" stroke-linecap="round"/>
  </symbol>

  <symbol id="window-control_maximize" viewBox="0 0 30 30">
      <rect x="10.5" y="10.5" width="9" height="9" fill="none" stroke="currentcolor" />
  </symbol>

  <symbol id="window-control_restore" viewBox="0 0 30 30">
      <polyline points="13.5 12 13.5 9.5 20.5 9.5 20.5 16.5 18 16.5" fill="none" stroke="currentcolor"/>
<rect x="9.5" y="13.5" width="7" height="7" fill="none" stroke="currentcolor"/>
  </symbol>

  <symbol id="window-control_minimize" viewBox="0 0 30 30">
      <line x1="10" y1="19.5" x2="20" y2="19.5" fill="none" stroke="currentcolor"/>
  </symbol>

  <symbol id="window-control_support" viewBox="0 0 30 30">
      <rect x="13.5" y="19" width="2" height="2" fill="currentcolor"/>
      <path d="M16.5,9H12v1h4.5A1.5,1.5,0,0,1,18,11.5v1A1.5,1.5,0,0,1,16.5,14H14v3h1V15h1.5A2.5,2.5,0,0,0,19,12.5v-1A2.5,2.5,0,0,0,16.5,9Z" fill="currentcolor"/>
  </symbol>

  <symbol id="window-control_settings" viewBox="0 0 30 30">
      <path d="M22,16.3V13.7H19.81a4.94,4.94,0,0,0-.49-1.18L20.87,11,19,9.13l-1.55,1.55a5,5,0,0,0-1.18-.49V8H13.7v2.19a5,5,0,0,0-1.18.49L11,9.13,9.13,11l1.55,1.55a5,5,0,0,0-.49,1.18H8v2.6h2.19a5,5,0,0,0,.49,1.18L9.13,19,11,20.87l1.55-1.55a4.94,4.94,0,0,0,1.18.49V22h2.6V19.81a4.94,4.94,0,0,0,1.18-.49L19,20.87,20.87,19l-1.55-1.55a4.94,4.94,0,0,0,.49-1.18Zm-7,1.45A2.75,2.75,0,1,1,17.75,15,2.75,2.75,0,0,1,15,17.75Z" fill="currentcolor"/>
</symbol>

<symbol id="house-icon" viewBox="0 0 981 908">
 <path d="M435 848 c-11 -6 -79 -58 -152 -115 -85 -67 -137 -116 -147 -137 -13
-28 -16 -73 -16 -244 l0 -211 26 -20 c23 -18 41 -21 116 -21 81 0 91 2 113 25
23 22 25 31 25 125 0 94 2 103 25 125 32 33 78 33 110 0 23 -22 25 -31 25
-129 0 -101 1 -105 26 -125 23 -18 41 -21 116 -21 81 0 91 2 113 25 25 24 25
25 25 231 0 169 -3 212 -16 240 -11 23 -61 70 -148 138 -72 56 -141 108 -153
114 -27 15 -62 15 -88 0z m192 -152 c73 -58 137 -114 142 -125 7 -12 11 -96
11 -215 l0 -196 -80 0 -80 0 0 93 c0 107 -16 149 -69 184 -63 43 -148 21 -191
-49 -16 -27 -20 -51 -20 -130 l0 -98 -80 0 -80 0 0 196 c0 120 4 203 11 215
14 27 270 229 290 229 8 0 74 -47 146 -104z"/>
<path d="M384 585 c-3 -8 -3 -22 0 -30 5 -13 22 -15 98 -13 92 3 93 3 93 28 0
25 -1 25 -93 28 -76 2 -93 0 -98 -13z"/>
 </symbol>

  <symbol id="settings-icon" viewBox="0 0 981 908">
 <path d="M653.4 2.5c-5.5 2.8-14.4 10.9-59.9 54.6-42 40.3-86.2 84.9-87.5 88.3-1.8 4.9-1.1 9.8 2.1 15.6 3.7 6.5 29.2 32.4 38.7 39.3 9.2 6.8 13.4 7.7 36.7 8.7 11 .4 21.7 1.3 23.7 1.9 6.9 2.1 16.1 9.5 34.2 27.2l18.1 17.8-8 7.8c-7.6 7.5-68.3 64.7-86.9 82.1-5.2 4.8-8.6 8.6-8 9.1 2.3 2.1 97.1 78.6 107.1 86.3 6.1 4.9 11.6 8.8 12.2 8.8 1.4 0 6.4-4.5 41.1-37 36.3-33.9 46-42.8 48.4-44.2 1.7-.9 3 .1 10.3 7.7 8.9 9.3 25 28.2 27 31.8.7 1.2 1.2 4.4 1.3 7.2 0 5.4-.9 7.3-8.4 17.4-5.5 7.6-6.5 11.7-4 17.2 3 6.9 11.2 12.9 31.1 22.8 6.5 3.3 14.5 6.8 17.8 7.9 12.8 4.2 34.8 3.6 53.5-1.3 31.8-8.6 60.2-32.2 74.4-61.8 7.2-14.9 12.6-36.2 12.6-49.3 0-13.1-4.9-29.3-14.8-49-8.5-16.9-13.8-22.4-21.4-22.4-5.1 0-8.4 1.4-15 6.6-6.5 5.1-13.1 8.3-16.9 8.4-1.4 0-5.3-1.4-8.6-3-9.8-4.9-32.3-29.2-39.2-42.4-2.8-5.3-3.9-9.5-8.2-30.6-4.3-21.3-13.2-37.3-29.1-52.6-15-14.3-25.3-19.6-50.8-26-15.7-4-22.4-6.5-29.9-11.2-11.4-7.2-25.8-23.8-30.2-34.9-2.1-5.2-2.3-7.1-2-18.3 1-33.1.8-37.1-2-43-3.2-6.9-13.9-19.7-29.5-35.5-9.2-9.3-12.9-12.3-16-13.3-5.9-1.7-8.4-1.5-14 1.3z"/>
 <path d="M217.5 64.1c-6.6.4-14.3 1.2-17.1 1.8C181 69.8 140 87.4 140 91.8c0 2.3 13.2 13.7 62.5 54 38.7 31.7 52 43.8 55.4 50.6 3.4 6.9 4.4 15.9 3.8 36.5-.5 21.1-1.4 25.5-8.1 39.6-10.9 22.9-37.4 49.4-61.1 61.1-13.1 6.4-23.4 8.8-36 8.1-15.8-.8-20.4-2.7-38.5-16.4-16.7-12.5-47.3-36.9-82.3-65.5-18.9-15.5-23.7-19-23.7-17.4 0 .1-1.4 5.5-3 12-8.7 33-10.4 76.4-3.9 99.7 10.5 37.9 36.5 68 74.1 85.9 17.8 8.4 29 11.3 51.5 13.2 28.8 2.4 57.5-2.6 94.7-16.6 7.8-2.9 15.5-5.6 17.2-5.9 3.6-.7-11.1-12.5 269.9 215.8 167.5 136.1 241.1 195.7 287.7 233 27.5 21.9 30.9 23.9 43.3 23.9 9.2 0 15.5-1.8 26.2-7.4 11.3-6 17.7-11.2 32.8-26.4 25.1-25.2 43.8-52.8 50.6-74.7 1.8-5.6 2.4-9.7 2.4-16.9-.1-8.6-.4-10.2-3.2-16.2-1.9-4-5.2-8.8-8-11.5-8.9-8.8-156-128.6-488.8-398.2-78.3-63.4-87.4-71.4-86-74.9 5.6-13.9 11.5-36.8 14-54.7 1.9-13.3 1.9-38.5 0-50.4-2.8-17.1-10-34.1-19.9-46.9-22.8-29.7-77.4-58.4-115.4-60.7-4.8-.3-10.9-.7-13.7-.9-2.7-.1-10.4.1-17 .5zM859 750.5c2.5.3 6.8 1.9 9.7 3.5 16.2 9.3 13.5 36.1-5.6 55.7-15.4 15.7-34.6 21.7-48.3 15-9.4-4.6-14.6-14-13.3-24.2 2-17.1 15.3-40.2 27.1-47.1 6.4-3.8 16-4.7 30.4-2.9z"/>
 <path d="M258.8 634.7C126.2 760.1 92.9 792.4 89.8 798.5c-4.6 8.9-4.7 25.6-.4 34.9 3.1 6.7 12 17 35 40.4 20.2 20.5 30.1 29.2 35.8 31.6 8.5 3.6 25.6 2.8 33.7-1.4 2-1 10.6-8.3 19.1-16.1 58.4-53.6 206.5-193.3 224.8-212.1l5.3-5.4-9.3-8c-11.5-9.9-100.4-82.5-108.5-88.6-.8-.6-21.8 18.6-66.5 60.9z"/>
 </symbol>

 <symbol id="feedback-icon" viewBox="0 0 981 908">
 <path d="M242 797 c-13 -14 -22 -36 -22 -54 0 -28 -7 -36 -58 -67 -32 -19 -64
-47 -70 -61 -8 -17 -12 -87 -12 -198 0 -196 9 -229 70 -259 31 -16 69 -18 330
-18 261 0 299 2 330 18 61 30 70 63 70 259 0 111 -4 181 -12 198 -6 14 -38 42
-70 61 -48 30 -58 40 -58 63 0 16 -9 40 -21 55 l-20 26 -218 0 c-214 0 -218 0
-239 -23z m438 -158 l0 -120 -94 -45 c-51 -24 -98 -44 -103 -44 -6 0 -54 20
-107 45 l-96 44 0 121 0 120 200 0 200 0 0 -121z m-460 -44 l0 -45 -35 17
c-19 9 -35 20 -35 24 0 6 59 48 68 49 1 0 2 -20 2 -45z m588 -3 c1 -4 -13 -16
-33 -25 l-35 -17 0 46 0 46 32 -21 c18 -11 34 -24 36 -29z m-466 -168 l137
-68 168 81 168 82 3 -136 c2 -129 1 -137 -19 -160 l-22 -23 -296 0 c-370 0
-341 -16 -341 182 l0 138 33 -13 c17 -8 94 -45 169 -83z"/>
<path d="M344 685 c-3 -8 -3 -22 0 -30 5 -13 27 -15 138 -13 l133 3 0 25 0 25
-133 3 c-111 2 -133 0 -138 -13z"/>
<path d="M344 565 c-3 -8 -3 -22 0 -30 5 -13 22 -15 98 -13 92 3 93 3 93 28 0
25 -1 25 -93 28 -76 2 -93 0 -98 -13z"/>
 </symbol>

</svg>